<?xml version="1.0" encoding="UTF-8" standalone="no"?>
<?xml-stylesheet href="styles.css" type="text/css"?>
<!DOCTYPE svg PUBLIC "-//W3C//DTD SVG 1.1//EN"
 "http://www.w3.org/Graphics/SVG/1.1/DTD/svg11.dtd">
<!-- Generated by graphviz version 8.0.5 (0)
 -->
<!-- Title: ER_MODEL Pages: 1 -->
<svg width="684pt" height="805pt"
 viewBox="0.00 0.00 684.00 805.00" xmlns="http://www.w3.org/2000/svg" xmlns:xlink="http://www.w3.org/1999/xlink">
<g id="graph0" class="graph" transform="scale(1 1) rotate(0) translate(4 801)">
<title>ER_MODEL</title>
<polygon fill="white" stroke="none" points="-4,4 -4,-801 680,-801 680,4 -4,4"/>
<!-- User -->
<g id="node1" class="node">
<title>User</title>
<polygon fill="lightblue" stroke="black" stroke-width="1.5" points="338.16,-562.48 284.16,-562.48 284.16,-526.48 338.16,-526.48 338.16,-562.48"/>
<text text-anchor="middle" x="311.16" y="-538.68" font-family="Helvetica,Arial,sans-serif" font-size="14.00">User</text>
</g>
<!-- participates -->
<g id="node3" class="node">
<title>participates</title>
<polygon fill="lightpink" stroke="black" stroke-width="1.5" points="347.6,-475.51 268.78,-457.51 347.6,-439.51 426.42,-457.51 347.6,-475.51"/>
<text text-anchor="middle" x="347.6" y="-451.71" font-family="Helvetica,Arial,sans-serif" font-size="14.00">participates</text>
</g>
<!-- User&#45;&#45;participates -->
<g id="edge1" class="edge">
<title>User&#45;&#45;participates</title>
<path fill="none" stroke="black" d="M318.89,-526.03C325.32,-510.68 334.41,-489 340.62,-474.16"/>
</g>
<!-- age -->
<g id="node4" class="node">
<title>age</title>
<ellipse fill="lightgreen" stroke="black" stroke-width="1.5" cx="140.27" cy="-633.21" rx="27" ry="18"/>
<text text-anchor="middle" x="140.27" y="-627.41" font-family="Helvetica,Arial,sans-serif" font-size="14.00">age</text>
</g>
<!-- User&#45;&#45;age -->
<g id="edge3" class="edge">
<title>User&#45;&#45;age</title>
<path fill="none" stroke="black" d="M283.7,-558.73C249.83,-576.32 192.94,-605.86 161.96,-621.94"/>
</g>
<!-- username -->
<g id="node5" class="node">
<title>username</title>
<ellipse fill="lightgreen" stroke="black" stroke-width="1.5" cx="560.88" cy="-666.98" rx="49.88" ry="18"/>
<text text-anchor="middle" x="560.88" y="-661.18" font-family="Helvetica,Arial,sans-serif" font-size="14.00">username</text>
</g>
<!-- User&#45;&#45;username -->
<g id="edge4" class="edge">
<title>User&#45;&#45;username</title>
<path fill="none" stroke="black" d="M338.36,-557.82C385.51,-580.95 482.06,-628.31 531.01,-652.33"/>
</g>
<!-- mail -->
<g id="node6" class="node">
<title>mail</title>
<ellipse fill="lightgreen" stroke="black" stroke-width="1.5" cx="258.92" cy="-749.17" rx="27" ry="18"/>
<text text-anchor="middle" x="258.92" y="-743.37" font-family="Helvetica,Arial,sans-serif" font-size="14.00">mail</text>
</g>
<!-- User&#45;&#45;mail -->
<g id="edge5" class="edge">
<title>User&#45;&#45;mail</title>
<path fill="none" stroke="black" d="M306.52,-562.64C296.61,-601.49 273.45,-692.24 263.54,-731.05"/>
</g>
<!-- password -->
<g id="node7" class="node">
<title>password</title>
<ellipse fill="lightgreen" stroke="black" stroke-width="1.5" cx="93.99" cy="-426.79" rx="47.93" ry="18"/>
<text text-anchor="middle" x="93.99" y="-420.99" font-family="Helvetica,Arial,sans-serif" font-size="14.00">password</text>
</g>
<!-- User&#45;&#45;password -->
<g id="edge6" class="edge">
<title>User&#45;&#45;password</title>
<path fill="none" stroke="black" d="M284.09,-529.81C242.59,-507.32 163.65,-464.54 121.74,-441.82"/>
</g>
<!-- rank -->
<g id="node8" class="node">
<title>rank</title>
<ellipse fill="lightgreen" stroke="black" stroke-width="1.5" cx="427.15" cy="-544.13" rx="27.46" ry="18"/>
<text text-anchor="middle" x="427.15" y="-538.33" font-family="Helvetica,Arial,sans-serif" font-size="14.00">rank</text>
</g>
<!-- User&#45;&#45;rank -->
<g id="edge7" class="edge">
<title>User&#45;&#45;rank</title>
<path fill="none" stroke="black" d="M338.65,-544.39C357,-544.34 381.06,-544.27 399.46,-544.21"/>
</g>
<!-- level -->
<g id="node9" class="node">
<title>level</title>
<ellipse fill="lightgreen" stroke="black" stroke-width="1.5" cx="119.91" cy="-520.91" rx="28.43" ry="18"/>
<text text-anchor="middle" x="119.91" y="-515.11" font-family="Helvetica,Arial,sans-serif" font-size="14.00">level</text>
</g>
<!-- User&#45;&#45;level -->
<g id="edge8" class="edge">
<title>User&#45;&#45;level</title>
<path fill="none" stroke="black" d="M283.76,-541.1C247.71,-536.66 184.68,-528.89 148.2,-524.4"/>
</g>
<!-- total_kills -->
<g id="node13" class="node">
<title>total_kills</title>
<ellipse fill="lightgreen" stroke="black" stroke-width="1.5" stroke-dasharray="5,2" cx="417.05" cy="-778.65" rx="46.47" ry="18"/>
<text text-anchor="middle" x="417.05" y="-772.85" font-family="Helvetica,Arial,sans-serif" font-size="14.00">total_kills</text>
</g>
<!-- User&#45;&#45;total_kills -->
<g id="edge9" class="edge">
<title>User&#45;&#45;total_kills</title>
<path fill="none" stroke="black" d="M319.47,-562.85C339.31,-606.73 389.27,-717.21 408.93,-760.68"/>
</g>
<!-- total_deaths -->
<g id="node14" class="node">
<title>total_deaths</title>
<ellipse fill="lightgreen" stroke="black" stroke-width="1.5" stroke-dasharray="5,2" cx="339.28" cy="-630.29" rx="58.17" ry="18"/>
<text text-anchor="middle" x="339.28" y="-624.49" font-family="Helvetica,Arial,sans-serif" font-size="14.00">total_deaths</text>
</g>
<!-- User&#45;&#45;total_deaths -->
<g id="edge10" class="edge">
<title>User&#45;&#45;total_deaths</title>
<path fill="none" stroke="black" d="M317.12,-562.68C321.9,-577.24 328.56,-597.56 333.33,-612.12"/>
</g>
<!-- total_matches -->
<g id="node15" class="node">
<title>total_matches</title>
<ellipse fill="lightgreen" stroke="black" stroke-width="1.5" stroke-dasharray="5,2" cx="65.83" cy="-707.09" rx="65.48" ry="18"/>
<text text-anchor="middle" x="65.83" y="-701.29" font-family="Helvetica,Arial,sans-serif" font-size="14.00">total_matches</text>
</g>
<!-- User&#45;&#45;total_matches -->
<g id="edge11" class="edge">
<title>User&#45;&#45;total_matches</title>
<path fill="none" stroke="black" d="M283.97,-562.5C236.18,-594.17 137.82,-659.37 91.29,-690.21"/>
</g>
<!-- id -->
<g id="node17" class="node primary_key">
<title>id</title>
<ellipse fill="lightgreen" stroke="black" stroke-width="1.5" cx="551.58" cy="-539.74" rx="27" ry="18"/>
<text text-anchor="middle" x="551.58" y="-533.94" font-family="Helvetica,Arial,sans-serif" font-size="14.00">id</text>
</g>
<!-- User&#45;&#45;id -->
<g id="edge12" class="edge">
<title>User&#45;&#45;id</title>
<path fill="none" stroke="black" d="M338.27,-543.94C384.44,-543.03 477.84,-541.19 524.2,-540.28"/>
</g>
<!-- Game -->
<g id="node2" class="node">
<title>Game</title>
<polygon fill="lightblue" stroke="black" stroke-width="1.5" points="564.46,-193.89 510.46,-193.89 510.46,-157.89 564.46,-157.89 564.46,-193.89"/>
<text text-anchor="middle" x="537.46" y="-170.09" font-family="Helvetica,Arial,sans-serif" font-size="14.00">Game</text>
</g>
<!-- Game&#45;&#45;participates -->
<g id="edge2" class="edge">
<title>Game&#45;&#45;participates</title>
<path fill="none" stroke="black" d="M526.66,-195.48C491.6,-247.49 392.51,-394.47 359.85,-442.92"/>
<path fill="none" stroke="none" d="M525,-194.36C489.94,-246.37 390.85,-393.36 358.19,-441.81"/>
<path fill="none" stroke="black" d="M523.35,-193.25C488.28,-245.25 389.2,-392.24 356.53,-440.69"/>
</g>
<!-- code -->
<g id="node16" class="node primary_key">
<title>code</title>
<ellipse fill="lightgreen" stroke="black" stroke-width="1.5" cx="646.81" cy="-18.4" rx="29.41" ry="18"/>
<text text-anchor="middle" x="646.81" y="-12.6" font-family="Helvetica,Arial,sans-serif" font-size="14.00">code</text>
</g>
<!-- Game&#45;&#45;code -->
<g id="edge16" class="edge">
<title>Game&#45;&#45;code</title>
<path fill="none" stroke="black" d="M550.22,-157.51C571.63,-126.68 614.46,-64.99 635.13,-35.22"/>
</g>
<!-- kills -->
<g id="node10" class="node">
<title>kills</title>
<ellipse fill="lightgreen" stroke="black" stroke-width="1.5" cx="275.05" cy="-382.3" rx="27" ry="18"/>
<text text-anchor="middle" x="275.05" y="-376.5" font-family="Helvetica,Arial,sans-serif" font-size="14.00">kills</text>
</g>
<!-- participates&#45;&#45;kills -->
<g id="edge13" class="edge">
<title>participates&#45;&#45;kills</title>
<path fill="none" stroke="black" d="M333.27,-442.65C320.71,-429.64 302.54,-410.8 289.85,-397.65"/>
</g>
<!-- deaths -->
<g id="node11" class="node">
<title>deaths</title>
<ellipse fill="lightgreen" stroke="black" stroke-width="1.5" cx="410.05" cy="-385.29" rx="36.72" ry="18"/>
<text text-anchor="middle" x="410.05" y="-379.49" font-family="Helvetica,Arial,sans-serif" font-size="14.00">deaths</text>
</g>
<!-- participates&#45;&#45;deaths -->
<g id="edge14" class="edge">
<title>participates&#45;&#45;deaths</title>
<path fill="none" stroke="black" d="M360.85,-442.2C371.01,-430.44 385.04,-414.21 395.52,-402.1"/>
</g>
<!-- agent -->
<g id="node12" class="node">
<title>agent</title>
<ellipse fill="lightgreen" stroke="black" stroke-width="1.5" cx="235.2" cy="-150.65" rx="32.33" ry="18"/>
<text text-anchor="middle" x="235.2" y="-144.85" font-family="Helvetica,Arial,sans-serif" font-size="14.00">agent</text>
</g>
<!-- participates&#45;&#45;agent -->
<g id="edge15" class="edge">
<title>participates&#45;&#45;agent</title>
<path fill="none" stroke="black" d="M341.4,-440.58C321.89,-387.3 261.86,-223.44 241.81,-168.68"/>
</g>
</g>
</svg>
